<?xml version="1.0" encoding="UTF-8" standalone="no"?>
<!-- Created with Inkscape (http://www.inkscape.org/) -->

<svg
   version="1.1"
   id="svg1"
   width="12804"
   height="867"
   viewBox="0 0 12804 867"
   xmlns:xlink="http://www.w3.org/1999/xlink"
   xmlns="http://www.w3.org/2000/svg"
   xmlns:svg="http://www.w3.org/2000/svg">
  <defs
     id="defs1" />
  <g
     id="g1">
    <image
       width="12804"
       height="867"
       preserveAspectRatio="none"
       xlink:href="ninja_gaiden_map_stage_floor_stage.png"
       id="image1" />
    <g
       id="g2">
      <path
         style="fill-opacity:1.0;fill:#d0d0d0"
         d="m 12803.739,784.29159 -0.354,6.20841 0,-13 0,-13 0.35,6.79159 0.351,6.79159 z m -5289.989,-19.53675 -101.25,-0.24517 100.736,-0.25961 100.7359,-0.25962 0.2641,-31.74522 0.264,-31.74522 360.75,-0.002 360.75,-0.002 -360.5,0.25343 -360.5,0.25343 V 733.00137 765 Z M 8578,764.50807 h -242.5 l 121.25,-0.25803 121.25,-0.25804 121.25,0.25804 121.25,0.25803 z m 967.75,0.2443 L 9337,765 l 0.2481,-267.75 0.2482,-267.75 0.2537,267.24764 0.2537,267.24764 208.2481,0.25473 208.2482,0.25473 z M 4662.7499,698.75 4662.4854,764.5 V 633 501.5 l 0.2645,65.75 0.2645,65.75 z m 5090.9823,57.5 -0.3828,4.25 v -8.5 -8.5 l 0.3828,4.25 0.3828,4.25 z m 982.0098,-8.45252 -0.34,7.70252 0,-16 0,-16 0.338,8.29748 0.337,8.29748 z"
         id="path5" />
      <path
         style="fill-opacity:1.0;fill:#8c8c8c"
         d="m 6037.5,764.50145 -1376,0 688.3328,-0.25145 688.3328,-0.25145 687.6672,0.25145 687.6672,0.25145 z m 4698.216,-1.75145 -0.416,2.75 v -5.5 -5.5 l 0.416,2.75 0.417,2.75 z m -6588.9661,-64 -0.2645,65.75 V 633 501.5 l 0.2645,65.75 0.2645,65.75 z m 5606.9823,41.5 -0.3828,4.25 v -8.5 -8.5 l 0.3828,4.25 0.3828,4.25 z M 3238,702.50672 h -292.5 l 146.25,-0.25669 146.25,-0.2567 146.25,0.2567 146.25,0.25669 z m 5658.5,-471.98209 -76,1.5e-4 37.6759,-0.27434 37.676,-0.27435 38.324,0.2742 38.3241,0.27419 z"
         id="path4" />
      <path
         style="fill:#494949;fill-opacity:1"
         d="m 12802.745,858.75 -0.334,8.75 V 850 832.5 l 0.334,8.75 0.333,8.75 z M 0.73931757,783.29159 0.3853593,789.5 l 0.003181,-13 0.003181,-13 0.35077754,6.79159 0.35077746,6.79159 z M 2062,764.50085 l -883.5,8.4e-4 883.2355,-0.25141 883.2356,-0.25141 0.2868,-30.74943 0.2869,-30.74944 -0.044,62 z m 1776.7186,0.25076 -307.7814,0.24839 -0.4838,-1.26093 -0.4839,-1.26093 0.2807,-29.98907 0.2807,-29.98907 0.2346,30.74839 0.2345,30.7484 307.75,0.25322 307.75,0.25321 z M 8820.75,631.33057 8820.4926,764.5 l 1e-4,-267 v -267 l 0.2573,133.83057 0.2573,133.83058 z m 932.9769,93.44586 -0.3907,3.72357 0.01,-8 0.01,-8 0.3841,4.27643 0.3841,4.27644 z M 10244,704.50403 h -491.5 l 245.75,-0.25402 245.75,-0.25402 245.75,0.25402 245.75,0.25402 z M 9139,230.51158 h -167.5 l 83.75,-0.2615 83.75,-0.2615 83.75,0.2615 83.75,0.2615 z"
         id="path3" />
      <path
         style="fill:#333333;fill-opacity:1"
         d="M -0.30425684,867.64857 0.03067796,764.20347 1473.4102,764.19052 2945.5,764.5 2946.0289,703 h 583.9422 l 0.5289,61.5 h 616 L 4147.0074,502 H 4662 v 263 h 2953 v -64 h 721 v 64.00406 L 8820.5,764.5 8821.0037,231 9337.9119,230.14084 9337,765 h 417.2163 L 9753.5,704.99998 10735,705 v 60 h 1034 1035.14 l -0.342,102.31449 z"
         id="path2" />
    </g>
  </g>
</svg>
